This is a brilliant but obscure indie film that takes a satirical look at Bollywood and Bombay, through the eyes of the eponymous 3 foreign returned Indians, each looking for something different in the city.

It's been very hard to find on the net, and all the links one finds point to the Hindi dubbed version (any torrent from desidhamaal.com, for example). I found this, the original English version on an obscure torrent site and it took me 3 months to download!
Please share this movie and seed - it's great fun.


Technical info:
Format : AVI
Format/Info : Audio Video Interleave
File size : 696 MiB
Duration : 1h 40mn
Overall bit rate : 969 Kbps
Movie name : Bombay Boys
Director : Kaizad Gustad
Genre : Comedy
Writing library : VirtualDub-MPEG2 build 24586/release
Dimensions : 576x304
Copyright : 1998

Video
ID : 0
Format : MPEG-4 Visual
Format settings, BVOP : 1
Format settings, QPel : No
Format settings, GMC : No warppoints
Format settings, Matrix : Default (H.263)
Muxing mode : Packed bitstream
Codec ID : DX50
Codec ID/Hint : DivX 5
Duration : 1h 40mn
Bit rate : 831 Kbps
Width : 576 pixels
Height : 304 pixels
Display aspect ratio : 1.895
Frame rate : 25.000 fps
Color space : YUV
Chroma subsampling : 4:2:0
Bit depth : 8 bits
Scan type : Progressive
Compression mode : Lossy
Bits/(Pixel*Frame) : 0.190
Stream size : 597 MiB (86%)
Writing library : DivX 5.1.1 (Maupiti) (UTC 2003-11-19)

Audio
ID : 1
Format : MPEG Audio
Format version : Version 1
Format profile : Layer 3
Codec ID : 55
Codec ID/Hint : MP3
Duration : 1h 40mn
Bit rate mode : Constant
Bit rate : 128 Kbps
Channel(s) : 1 channel
Sampling rate : 44.1 KHz
Compression mode : Lossy
Stream size : 91.9 MiB (13%)
Alignment : Split accross interleaves
Interleave, duration : 40 ms (1.00 video frame)
Interleave, preload duration : 500 ms 